<svg width="54" height="41" viewBox="0 0 54 41" fill="none" xmlns="http://www.w3.org/2000/svg">
<path d="M38.8507 40.4566C35.9186 40.4566 33.3122 39.4004 31.0317 37.288C28.914 35.0131 27.8552 32.4132 27.8552 29.4883C27.8552 28.6758 27.9367 27.8633 28.0995 27.0508C28.0995 27.0508 28.181 26.9696 28.3439 26.8071C28.3439 26.4821 28.4253 26.0759 28.5882 25.5884C29.2398 23.151 31.1131 19.4136 34.2081 14.3763C37.4661 9.33895 42.7602 4.62661 50.0905 0.239258L54 6.08906C54 6.08906 53.267 6.73904 51.8009 8.03899C50.3348 9.17646 48.7059 10.7202 46.914 12.6701C45.2851 14.62 43.9819 16.8137 43.0045 19.2511C47.7285 21.3635 50.0905 24.7759 50.0905 29.4883C50.0905 32.4132 48.9502 35.0131 46.6697 37.288C44.552 39.4004 41.9457 40.4566 38.8507 40.4566ZM0 29.4883C0 28.6758 0.081448 27.8633 0.244344 27.0508C0.244344 27.0508 0.244344 26.9696 0.244344 26.8071C0.40724 26.4821 0.570136 26.0759 0.733032 25.5884C1.22172 23.151 3.09502 19.4136 6.35294 14.3763C9.61086 9.33895 14.8235 4.62661 21.9909 0.239258L25.9005 6.08906C25.9005 6.08906 25.1674 6.73904 23.7014 8.03899C22.3982 9.17646 20.8507 10.7202 19.0588 12.6701C17.4299 14.62 16.0452 16.8137 14.905 19.2511C19.629 21.3635 21.9909 24.7759 21.9909 29.4883C21.9909 32.4132 20.9321 35.0131 18.8145 37.288C16.6968 39.4004 14.0905 40.4566 10.9955 40.4566C7.90045 40.4566 5.29412 39.4004 3.17647 37.288C1.05882 35.0131 0 32.4132 0 29.4883Z" fill="#737373"/>
</svg>
